<?xml version="1.0" standalone="no"?>
<!DOCTYPE svg PUBLIC "-//W3C//DTD SVG 20010904//EN"
 "http://www.w3.org/TR/2001/REC-SVG-20010904/DTD/svg10.dtd">
<svg version="1.0" xmlns="http://www.w3.org/2000/svg"
 width="1280.000000pt" height="1280.000000pt" viewBox="0 0 1280.000000 1280.000000"
 preserveAspectRatio="xMidYMid meet">
<metadata>
Created by potrace 1.16, written by Peter Selinger 2001-2019
</metadata>
<g transform="translate(0.000000,1280.000000) scale(0.100000,-0.100000)"
fill="#000000" stroke="none">
<path d="M6400 12640 l0 -160 3040 0 3040 0 0 -6080 0 -6080 -6080 0 -6080 0
0 3040 0 3040 -160 0 -160 0 0 -3200 0 -3200 6400 0 6400 0 0 6400 0 6400
-3200 0 -3200 0 0 -160z"/>
<path d="M6470 11568 c25 -12 117 -57 206 -100 915 -443 1728 -1176 2225
-2006 50 -84 93 -151 95 -149 13 13 -84 333 -151 498 -344 844 -1073 1478
-1960 1705 -124 32 -296 63 -389 69 l-71 6 45 -23z"/>
<path d="M5410 11399 c-123 -11 -283 -36 -390 -61 -123 -28 -234 -60 -244 -70
-6 -4 30 -8 80 -8 515 -1 1195 -124 1728 -312 352 -124 737 -305 986 -463 97
-61 293 -194 355 -240 117 -86 118 -83 11 55 -79 102 -93 117 -226 250 -154
155 -183 180 -309 274 -334 251 -715 428 -1109 515 -278 62 -604 84 -882 60z"/>
<path d="M8001 11272 c2 -6 54 -64 115 -129 429 -460 795 -1016 1042 -1588
159 -366 293 -828 347 -1190 19 -133 25 -159 31 -153 2 3 11 54 20 114 21 153
26 497 8 667 -67 668 -370 1297 -851 1768 -186 182 -386 336 -575 442 -27 15
-69 39 -94 53 -26 15 -45 22 -43 16z"/>
<path d="M4950 11035 c-528 -65 -1034 -271 -1442 -587 -43 -33 -78 -64 -78
-68 0 -4 58 14 129 41 892 335 1902 431 2821 268 104 -18 416 -91 454 -105 9
-3 16 -2 16 3 0 11 -159 103 -295 171 -257 128 -546 217 -865 267 -147 24
-584 29 -740 10z"/>
<path d="M4815 10544 c-567 -58 -1044 -240 -1486 -566 -211 -155 -421 -365
-588 -587 -98 -128 -275 -421 -256 -421 3 0 58 50 122 110 447 425 1017 801
1588 1045 430 184 814 295 1243 361 62 9 110 19 108 21 -3 3 -44 11 -93 19
-85 14 -549 27 -638 18z"/>
<path d="M6145 10440 c-651 -57 -1242 -300 -1735 -713 -698 -584 -1100 -1447
-1100 -2362 0 -970 450 -1873 1225 -2460 816 -619 1892 -787 2873 -451 742
255 1375 808 1733 1514 505 995 432 2198 -190 3120 -498 740 -1279 1220 -2176
1337 -143 19 -490 27 -630 15z m135 -2225 l0 -225 -340 0 -340 0 0 -905 0
-905 -290 0 -290 0 0 905 0 905 -340 0 -340 0 0 225 0 225 970 0 970 0 0 -225z
m1910 0 l0 -225 -516 0 c-340 0 -530 -4 -559 -11 -53 -13 -101 -59 -115 -107
-13 -50 -13 -181 1 -223 14 -41 43 -75 84 -97 26 -15 87 -18 450 -23 357 -5
429 -8 480 -23 183 -54 294 -170 342 -363 26 -103 26 -509 -1 -608 -51 -190
-145 -293 -324 -354 l-77 -26 -355 0 c-360 1 -757 19 -1097 51 l-63 6 0 218 0
218 43 -4 c100 -10 703 -35 942 -40 245 -5 262 -5 295 14 66 36 75 65 78 259
l4 172 -459 4 c-505 4 -533 7 -660 68 -125 60 -205 165 -250 329 -15 54 -18
105 -18 295 0 248 7 297 61 414 67 148 210 242 409 270 33 5 340 9 683 10
l622 1 0 -225z"/>
<path d="M9405 10313 c194 -481 332 -1085 375 -1638 14 -182 14 -625 0 -790
-24 -293 -69 -571 -135 -829 -19 -77 -35 -144 -35 -150 0 -35 155 245 226 409
420 968 290 2066 -344 2912 -72 96 -104 127 -87 86z"/>
<path d="M4287 9934 c-593 -159 -1139 -522 -1522 -1010 -232 -295 -426 -691
-520 -1059 -44 -173 -92 -465 -76 -465 4 0 18 26 31 58 39 98 195 400 281 547
418 714 982 1320 1629 1750 102 67 215 139 252 160 119 65 107 68 -75 19z"/>
<path d="M3490 8933 c-300 -226 -563 -525 -755 -858 -379 -656 -483 -1444
-289 -2185 19 -74 39 -139 43 -143 4 -4 11 79 14 185 15 422 76 823 192 1253
45 167 52 188 117 375 176 508 421 967 746 1399 13 17 20 31 15 31 -4 0 -42
-25 -83 -57z"/>
<path d="M10286 8863 c-40 -876 -214 -1577 -566 -2288 -148 -300 -274 -507
-443 -733 -38 -51 -67 -96 -64 -99 15 -15 315 244 441 380 379 410 618 877
730 1427 68 335 65 776 -9 1140 -21 107 -69 288 -79 297 -2 2 -7 -53 -10 -124z"/>
<path d="M3147 7793 c-228 -363 -372 -777 -422 -1213 -21 -178 -16 -575 9
-738 62 -405 205 -792 418 -1132 71 -113 221 -315 225 -303 2 5 -21 76 -51
159 -163 448 -266 912 -318 1429 -17 171 -17 739 0 910 28 282 80 582 142 809
16 61 28 112 25 114 -2 2 -14 -13 -28 -35z"/>
<path d="M10583 7269 c-50 -118 -191 -393 -274 -534 -246 -422 -524 -781 -873
-1131 -318 -317 -635 -565 -999 -778 -54 -32 -96 -60 -94 -62 7 -8 159 32 296
78 909 297 1594 1002 1874 1928 53 175 121 540 103 557 -3 3 -18 -23 -33 -58z"/>
<path d="M3247 6515 c-36 -112 -45 -678 -14 -885 96 -631 368 -1182 803 -1625
146 -148 270 -251 454 -376 120 -82 279 -173 288 -165 3 4 -28 41 -69 83 -40
43 -76 80 -79 83 -19 19 -202 234 -232 271 -600 751 -990 1622 -1126 2514 -11
73 -21 112 -25 100z"/>
<path d="M10244 5712 c-28 -26 -82 -77 -121 -113 -412 -387 -1014 -774 -1568
-1009 -383 -162 -850 -295 -1215 -345 -25 -3 -58 -9 -75 -12 -26 -5 -27 -7
-10 -13 103 -37 623 -48 845 -17 795 111 1467 506 1952 1147 89 117 257 394
246 405 -2 3 -27 -17 -54 -43z"/>
<path d="M3794 5385 c13 -75 68 -260 113 -380 350 -927 1130 -1601 2098 -1814
111 -24 316 -54 341 -49 10 1 -41 29 -116 63 -162 73 -440 223 -615 332 -723
451 -1347 1079 -1750 1763 -37 63 -70 117 -73 120 -2 3 -2 -13 2 -35z"/>
<path d="M4767 4538 c254 -332 458 -530 748 -723 226 -151 442 -257 690 -341
315 -105 580 -148 930 -147 284 0 450 21 740 94 146 37 169 48 100 49 -140 1
-452 24 -625 45 -779 99 -1501 347 -2135 733 -109 66 -322 211 -389 263 -48
38 -78 52 -59 27z"/>
<path d="M9245 4319 c-413 -163 -962 -287 -1478 -335 -210 -20 -685 -23 -877
-5 -290 26 -583 76 -838 142 -63 17 -116 28 -119 26 -7 -7 149 -98 274 -161
437 -218 895 -318 1383 -303 212 7 298 16 500 57 384 77 777 248 1100 480 102
73 181 139 165 139 -5 -1 -55 -19 -110 -40z"/>
<path d="M1110 2445 l0 -145 95 0 95 0 0 -425 0 -425 -95 0 -95 0 0 -145 0
-145 375 0 375 0 0 145 0 145 -95 0 -95 0 0 425 0 425 95 0 95 0 0 145 0 145
-375 0 -375 0 0 -145z"/>
<path d="M2030 1875 l0 -715 190 0 190 0 2 411 3 410 235 -410 234 -411 198 0
198 0 0 715 0 715 -185 0 -185 0 0 -422 0 -423 -241 423 -241 422 -199 0 -199
0 0 -715z"/>
<path d="M3520 1875 l0 -715 443 0 c355 0 454 3 505 15 64 15 141 51 178 83
47 40 95 117 116 185 22 69 23 86 23 432 0 384 -3 413 -56 516 -44 86 -154
164 -267 188 -34 7 -209 11 -497 11 l-445 0 0 -715z m776 414 c52 -13 100 -62
109 -111 3 -18 5 -167 3 -330 -3 -283 -4 -298 -24 -325 -47 -62 -69 -68 -291
-71 l-203 -4 0 426 0 426 181 0 c100 0 200 -5 225 -11z"/>
<path d="M4980 2033 c0 -450 3 -571 15 -627 26 -121 85 -194 192 -237 56 -23
69 -24 403 -27 368 -4 428 1 510 43 84 43 131 105 155 206 12 53 15 160 15
632 l0 567 -185 0 -184 0 -3 -543 c-3 -497 -4 -545 -20 -570 -28 -42 -73 -49
-276 -45 l-184 3 -29 33 -29 32 0 545 0 545 -190 0 -190 0 0 -557z"/>
<path d="M6690 2574 c-113 -30 -180 -91 -217 -197 -15 -43 -18 -84 -18 -232 0
-164 2 -185 23 -237 27 -67 87 -132 145 -157 81 -35 143 -41 422 -41 l275 0 0
-108 c0 -179 2 -178 -347 -163 -142 6 -315 14 -385 18 l-128 6 0 -141 0 -140
48 -6 c129 -16 435 -30 672 -30 254 -1 267 0 322 22 151 61 206 193 195 462
-7 188 -46 279 -142 336 -81 47 -130 54 -393 54 -277 0 -303 5 -327 64 -19 45
-19 107 0 152 25 61 42 64 415 64 l330 0 0 145 0 145 -417 -1 c-335 0 -429 -3
-473 -15z"/>
<path d="M7670 2445 l0 -145 215 0 215 0 0 -570 0 -570 185 0 185 0 0 570 0
570 215 0 215 0 0 145 0 145 -615 0 -615 0 0 -145z"/>
<path d="M9030 1875 l0 -715 190 0 190 0 0 215 0 216 136 -3 136 -3 117 -212
116 -213 204 0 c179 0 202 2 197 15 -3 9 -59 109 -124 224 l-118 207 44 19
c92 38 149 114 172 231 8 39 10 133 8 269 -4 189 -6 216 -27 267 -29 75 -94
140 -169 170 -57 23 -60 23 -564 26 l-508 3 0 -716z m840 407 c47 -23 59 -62
59 -192 0 -205 -7 -210 -306 -210 l-213 0 0 210 0 210 213 0 c182 0 217 -3
247 -18z"/>
<path d="M10413 2428 c47 -90 168 -326 271 -524 l186 -362 0 -191 0 -191 190
0 190 0 0 190 0 189 269 523 270 523 -196 3 c-108 1 -200 -1 -204 -5 -4 -5
-78 -155 -165 -335 -87 -181 -160 -328 -163 -328 -3 0 -78 150 -167 333 l-160
332 -203 3 -203 2 85 -162z"/>
</g>
</svg>
